<?xml version="1.0" encoding="utf-8"?>
<svg version="1.1" xmlns:xlink="http://www.w3.org/1999/xlink" width="26px" height="28px" xmlns="http://www.w3.org/2000/svg">
  <g transform="matrix(1 0 0 1 -579 -337 )">
    <path d="M 15.8354430379747 27.8110795454545  C 15.6751054852321 27.9370265151515  15.4852320675105 28  15.2658227848101 28  L 10.9113924050633 28  C 10.6919831223629 28  10.5021097046414 27.9403409090909  10.3417721518987 27.8210227272727  C 10.1814345991561 27.7017045454545  10.1012658227848 27.5492424242424  10.1012658227848 27.3636363636364  L 10.1012658227848 20.8011363636364  L 2.81012658227848 20.8011363636364  C 2.59071729957806 20.8011363636364  2.40084388185654 20.7414772727273  2.24050632911392 20.6221590909091  C 2.08016877637131 20.5028409090909  2 20.3503787878788  2 20.1647727272727  L 2 18.1164772727273  C 2 17.9441287878788  2.08016877637131 17.7949810606061  2.24050632911392 17.6690340909091  C 2.40084388185654 17.5430871212121  2.59071729957806 17.4801136363636  2.81012658227848 17.4801136363636  L 10.1012658227848 17.4801136363636  L 10.1012658227848 15.7897727272727  L 2.81012658227848 15.7897727272727  C 2.59071729957806 15.7897727272727  2.40084388185654 15.7301136363636  2.24050632911392 15.6107954545455  C 2.08016877637131 15.4914772727273  2 15.3390151515152  2 15.1534090909091  L 2 13.0852272727273  C 2 12.9128787878788  2.08016877637131 12.7637310606061  2.24050632911392 12.6377840909091  C 2.40084388185654 12.5118371212121  2.59071729957806 12.4488636363636  2.81012658227848 12.4488636363636  L 8.22784810126582 12.4488636363636  L 0.10126582278481 0.954545454545454  C -0.0337552742616034 0.742424242424242  -0.0337552742616034 0.530303030303027  0.10126582278481 0.318181818181818  C 0.270042194092827 0.106060606060606  0.506329113924051 0  0.810126582278481 0  L 5.72151898734177 0  C 6.04219409282701 0  6.28691983122363 0.119318181818182  6.45569620253165 0.357954545454546  L 11.8987341772152 8.80965909090909  C 12.2194092827004 9.31344696969697  12.6919831223629 10.1420454545455  13.3164556962025 11.2954545454545  C 13.4852320675106 10.9772727272727  13.7426160337553 10.5265151515151  14.0886075949367 9.94318181818182  C 14.4345991561181 9.35984848484848  14.6666666666667 8.95549242424242  14.7848101265823 8.73011363636364  L 19.620253164557 0.377840909090911  C 19.7552742616034 0.125946969696967  20 0  20.3544303797468 0  L 25.1898734177215 0  C 25.4767932489452 0  25.704641350211 0.106060606060606  25.873417721519 0.318181818181818  C 26.0253164556962 0.503787878787878  26.0337552742616 0.709280303030301  25.8987341772152 0.93465909090909  L 17.9746835443038 12.4488636363636  L 23.4177215189873 12.4488636363636  C 23.6371308016878 12.4488636363636  23.8270042194093 12.5118371212121  23.9873417721519 12.6377840909091  C 24.1476793248945 12.7637310606061  24.2278481012658 12.9128787878788  24.2278481012658 13.0852272727273  L 24.2278481012658 15.1534090909091  C 24.2278481012658 15.3390151515152  24.1476793248945 15.4914772727273  23.9873417721519 15.6107954545455  C 23.8270042194093 15.7301136363636  23.6371308016878 15.7897727272727  23.4177215189873 15.7897727272727  L 16.0759493670886 15.7897727272727  L 16.0759493670886 17.4801136363636  L 23.4177215189873 17.4801136363636  C 23.6371308016878 17.4801136363636  23.8270042194093 17.5430871212121  23.9873417721519 17.6690340909091  C 24.1476793248945 17.7949810606061  24.2278481012658 17.9441287878788  24.2278481012658 18.1164772727273  L 24.2278481012658 20.1647727272727  C 24.2278481012658 20.3503787878788  24.1476793248945 20.5028409090909  23.9873417721519 20.6221590909091  C 23.8270042194093 20.7414772727273  23.6371308016878 20.8011363636364  23.4177215189873 20.8011363636364  L 16.0759493670886 20.8011363636364  L 16.0759493670886 27.3636363636364  C 16.0759493670886 27.5359848484849  15.9957805907173 27.6851325757576  15.8354430379747 27.8110795454545  Z " fill-rule="nonzero" fill="#000000" stroke="none" transform="matrix(1 0 0 1 579 337 )" />
  </g>
</svg>