<?xml version="1.0" encoding="utf-8"?>
<svg version="1.1" xmlns:xlink="http://www.w3.org/1999/xlink" width="35px" height="21px" xmlns="http://www.w3.org/2000/svg">
  <g transform="matrix(1 0 0 1 -664 -375 )">
    <path d="M 2.5 10.5  C 4.67447916666667 13.1875  7.45442708333333 15.140625  10.83984375 16.359375  L 12.36328125 14.15625  C 11.23046875 13.5  10.3450520833333 12.671875  9.70703125 11.671875  C 9.06901041666667 10.671875  8.75 9.61458333333333  8.75 8.5  C 8.75 7.23958333333333  9.14713541666667 6.06770833333333  9.94140625 4.984375  C 6.95963541666667 6.203125  4.47916666666667 8.04166666666667  2.5 10.5  Z M 18.1640625 5.03125  C 18.3463541666667 4.88541666666666  18.4375 4.70833333333333  18.4375 4.5  C 18.4375 4.29166666666667  18.3463541666667 4.11458333333333  18.1640625 3.96875  C 17.9817708333333 3.82291666666666  17.7604166666667 3.75  17.5 3.75  C 15.8723958333333 3.75  14.4759114583333 4.21614583333333  13.310546875 5.1484375  C 12.1451822916667 6.08072916666667  11.5625 7.19791666666667  11.5625 8.5  C 11.5625 8.70833333333333  11.6536458333333 8.88541666666667  11.8359375 9.03125  C 12.0182291666667 9.17708333333333  12.2395833333333 9.25  12.5 9.25  C 12.7604166666667 9.25  12.9817708333333 9.17708333333333  13.1640625 9.03125  C 13.3463541666667 8.88541666666667  13.4375 8.70833333333333  13.4375 8.5  C 13.4375 7.60416666666667  13.8346354166667 6.83854166666667  14.62890625 6.203125  C 15.4231770833333 5.56770833333333  16.3802083333333 5.25  17.5 5.25  C 17.7604166666667 5.25  17.9817708333333 5.17708333333333  18.1640625 5.03125  Z M 25.21484375 1.09375  C 25.4231770833333 1.19791666666666  25.52734375 1.33854166666667  25.52734375 1.515625  C 25.52734375 1.58854166666666  25.5208333333333 1.63541666666666  25.5078125 1.65625  C 24.1276041666667 3.625  22.0703125 6.578125  19.3359375 10.515625  C 16.6015625 14.453125  14.55078125 17.4010416666667  13.18359375 19.359375  L 12.2265625 20.75  C 12.0963541666667 20.9166666666667  11.9140625 21  11.6796875 21  C 11.5234375 21  10.6510416666667 20.6354166666667  9.0625 19.90625  C 8.85416666666667 19.8020833333333  8.75 19.65625  8.75 19.46875  C 8.75 19.34375  9.03645833333333 18.890625  9.609375 18.109375  C 7.74739583333333 17.4322916666667  6.03190104166667 16.53125  4.462890625 15.40625  C 2.89388020833333 14.28125  1.53645833333333 13.0052083333333  0.390625 11.578125  C 0.130208333333333 11.2552083333333  0 10.8958333333333  0 10.5  C 0 10.1041666666667  0.130208333333333 9.74479166666667  0.390625 9.421875  C 2.3828125 6.97395833333333  4.85677083333333 5.04166666666667  7.8125 3.625  C 10.7682291666667 2.20833333333333  13.9973958333333 1.5  17.5 1.5  C 18.6588541666667 1.5  19.8307291666667 1.58854166666666  21.015625 1.765625  L 22.0703125 0.249999999999999  C 22.2005208333333 0.083333333333333  22.3828125 0  22.6171875 0  C 22.6822916666667 0  22.7994791666667 0.0312499999999999  22.96875 0.0937499999999997  C 23.1380208333333 0.156249999999999  23.33984375 0.236979166666664  23.57421875 0.335937500000001  C 23.80859375 0.434895833333332  24.0234375 0.53125  24.21875 0.625  C 24.4140625 0.71875  24.619140625 0.815104166666663  24.833984375 0.9140625  C 25.048828125 1.01302083333333  25.17578125 1.07291666666667  25.21484375 1.09375  Z M 26.09375 7.1875  C 26.1979166666667 7.65625  26.25 8.09375  26.25 8.5  C 26.25 9.94791666666667  25.7356770833333 11.2682291666667  24.70703125 12.4609375  C 23.6783854166667 13.6536458333333  22.3177083333333 14.5104166666667  20.625 15.03125  L 26.09375 7.1875  Z M 34.609375 9.421875  C 34.8697916666667 9.77604166666667  35 10.1354166666667  35 10.5  C 35 10.8645833333333  34.8697916666667 11.2239583333333  34.609375 11.578125  C 34.1015625 12.2447916666667  33.3919270833333 13  32.48046875 13.84375  C 30.52734375 15.6354166666667  28.2649739583333 17.0260416666667  25.693359375 18.015625  C 23.1217447916667 19.0052083333333  20.390625 19.5  17.5 19.5  L 18.9453125 17.4375  C 21.7057291666667 17.25  24.2610677083333 16.5364583333333  26.611328125 15.296875  C 28.9615885416667 14.0572916666667  30.9244791666667 12.4583333333333  32.5 10.5  C 31.0026041666667 8.63541666666667  29.1666666666667 7.10416666666667  26.9921875 5.90625  L 28.22265625 4.15625  C 29.4596354166667 4.82291666666666  30.6477864583333 5.61979166666666  31.787109375 6.546875  C 32.9264322916667 7.47395833333333  33.8671875 8.43229166666667  34.609375 9.421875  Z " fill-rule="nonzero" fill="#000000" stroke="none" transform="matrix(1 0 0 1 664 375 )" />
  </g>
</svg>