<?xml version="1.0" encoding="utf-8"?>
<svg version="1.1" xmlns:xlink="http://www.w3.org/1999/xlink" width="29px" height="29px" xmlns="http://www.w3.org/2000/svg">
  <g transform="matrix(1 0 0 1 -1215 -315 )">
    <path d="M 1229.5 315  C 1237.62 315  1244 321.38  1244 329.5  C 1244 337.62  1237.62 344  1229.5 344  C 1221.38 344  1215 337.62  1215 329.5  C 1215 321.38  1221.38 315  1229.5 315  Z " fill-rule="nonzero" fill="#ffffff" stroke="none" />
    <path d="M 1229.5 315.5  C 1237.34 315.5  1243.5 321.66  1243.5 329.5  C 1243.5 337.34  1237.34 343.5  1229.5 343.5  C 1221.66 343.5  1215.5 337.34  1215.5 329.5  C 1215.5 321.66  1221.66 315.5  1229.5 315.5  Z " stroke-width="1" stroke="#797979" fill="none" />
  </g>
</svg>