<?xml version="1.0" encoding="utf-8"?>
<svg version="1.1" xmlns:xlink="http://www.w3.org/1999/xlink" width="29px" height="29px" xmlns="http://www.w3.org/2000/svg">
  <g transform="matrix(1 0 0 1 -1177 -292 )">
    <path d="M 1191.5 292  C 1199.62 292  1206 298.38  1206 306.5  C 1206 314.62  1199.62 321  1191.5 321  C 1183.38 321  1177 314.62  1177 306.5  C 1177 298.38  1183.38 292  1191.5 292  Z " fill-rule="nonzero" fill="#ffffff" stroke="none" />
    <path d="M 1191.5 292.5  C 1199.34 292.5  1205.5 298.66  1205.5 306.5  C 1205.5 314.34  1199.34 320.5  1191.5 320.5  C 1183.66 320.5  1177.5 314.34  1177.5 306.5  C 1177.5 298.66  1183.66 292.5  1191.5 292.5  Z " stroke-width="1" stroke="#797979" fill="none" />
  </g>
</svg>