<?xml version="1.0" encoding="utf-8"?>
<svg version="1.1" xmlns:xlink="http://www.w3.org/1999/xlink" width="22px" height="22px" viewBox="491 400  22 22" xmlns="http://www.w3.org/2000/svg">
  <path d="M 502 400  C 508.16 400  513 404.84  513 411  C 513 417.16  508.16 422  502 422  C 495.84 422  491 417.16  491 411  C 491 404.84  495.84 400  502 400  Z " fill-rule="nonzero" fill="#ffffff" stroke="none" />
  <path d="M 502 400.5  C 507.88 400.5  512.5 405.12  512.5 411  C 512.5 416.88  507.88 421.5  502 421.5  C 496.12 421.5  491.5 416.88  491.5 411  C 491.5 405.12  496.12 400.5  502 400.5  Z " stroke-width="1" stroke="#797979" fill="none" />
  <path d="M 502 416.5  C 498.92 416.5  496.5 414.08  496.5 411  C 496.5 407.92  498.92 405.5  502 405.5  C 505.08 405.5  507.5 407.92  507.5 411  C 507.5 414.08  505.08 416.5  502 416.5  " fill-rule="nonzero" fill="#797979" stroke="none" />
</svg>