<?xml version="1.0" encoding="utf-8"?>
<svg version="1.1" xmlns:xlink="http://www.w3.org/1999/xlink" width="22px" height="22px" viewBox="688 400  22 22" xmlns="http://www.w3.org/2000/svg">
  <path d="M 699 400  C 705.16 400  710 404.84  710 411  C 710 417.16  705.16 422  699 422  C 692.84 422  688 417.16  688 411  C 688 404.84  692.84 400  699 400  Z " fill-rule="nonzero" fill="#f0f0f0" stroke="none" />
  <path d="M 699 400.5  C 704.88 400.5  709.5 405.12  709.5 411  C 709.5 416.88  704.88 421.5  699 421.5  C 693.12 421.5  688.5 416.88  688.5 411  C 688.5 405.12  693.12 400.5  699 400.5  Z " stroke-width="1" stroke="#797979" fill="none" />
  <path d="M 699 416.5  C 695.92 416.5  693.5 414.08  693.5 411  C 693.5 407.92  695.92 405.5  699 405.5  C 702.08 405.5  704.5 407.92  704.5 411  C 704.5 414.08  702.08 416.5  699 416.5  " fill-rule="nonzero" fill="#797979" stroke="none" />
</svg>