<?xml version="1.0" encoding="utf-8"?>
<svg version="1.1" xmlns:xlink="http://www.w3.org/1999/xlink" width="22px" height="22px" viewBox="491 347  22 22" xmlns="http://www.w3.org/2000/svg">
  <path d="M 502 347  C 508.16 347  513 351.84  513 358  C 513 364.16  508.16 369  502 369  C 495.84 369  491 364.16  491 358  C 491 351.84  495.84 347  502 347  Z " fill-rule="nonzero" fill="#ffffff" stroke="none" />
  <path d="M 502 347.5  C 507.88 347.5  512.5 352.12  512.5 358  C 512.5 363.88  507.88 368.5  502 368.5  C 496.12 368.5  491.5 363.88  491.5 358  C 491.5 352.12  496.12 347.5  502 347.5  Z " stroke-width="1" stroke="#797979" fill="none" />
  <path d="M 502 363.5  C 498.92 363.5  496.5 361.08  496.5 358  C 496.5 354.92  498.92 352.5  502 352.5  C 505.08 352.5  507.5 354.92  507.5 358  C 507.5 361.08  505.08 363.5  502 363.5  " fill-rule="nonzero" fill="#797979" stroke="none" />
</svg>