<?xml version="1.0" encoding="utf-8"?>
<svg version="1.1" xmlns:xlink="http://www.w3.org/1999/xlink" width="33px" height="30px" xmlns="http://www.w3.org/2000/svg">
  <g transform="matrix(1 0 0 1 -2735 -2391 )">
    <path d="M 18.6773385300668 25.2133413461538  C 18.7937082405345 25.0991586538462  18.8518930957684 24.9579326923077  18.8518930957684 24.7896634615385  L 18.8518930957684 21.3641826923077  C 18.8518930957684 21.1959134615385  18.7937082405345 21.0546875  18.6773385300668 20.9405048076923  C 18.5609688195991 20.8263221153846  18.4231625835189 20.7692307692308  18.2639198218263 20.7692307692308  L 14.7360801781737 20.7692307692308  C 14.5768374164811 20.7692307692308  14.4390311804009 20.8263221153846  14.3226614699332 20.9405048076923  C 14.2062917594655 21.0546875  14.1481069042316 21.1959134615385  14.1481069042316 21.3641826923077  L 14.1481069042316 24.7896634615385  C 14.1481069042316 24.9579326923077  14.2062917594655 25.0991586538462  14.3226614699332 25.2133413461538  C 14.4390311804009 25.3275240384615  14.5768374164811 25.3846153846154  14.7360801781737 25.3846153846154  L 18.2639198218263 25.3846153846154  C 18.4231625835189 25.3846153846154  18.5609688195991 25.3275240384615  18.6773385300668 25.2133413461538  Z M 18.6222160356347 18.3443509615385  C 18.7385857461025 18.2662259615385  18.8028953229399 18.1670673076923  18.815144766147 18.046875  L 19.1458797327394 9.77163461538462  C 19.1458797327394 9.62740384615385  19.0846325167038 9.51322115384615  18.9621380846325 9.42908653846154  C 18.8028953229399 9.296875  18.6559020044543 9.23076923076923  18.5211581291759 9.23076923076923  L 14.4788418708241 9.23076923076923  C 14.3440979955457 9.23076923076923  14.1971046770601 9.296875  14.0378619153675 9.42908653846154  C 13.9153674832962 9.51322115384615  13.8541202672606 9.63942307692307  13.8541202672606 9.80769230769231  L 14.1664810690423 18.046875  C 14.1664810690423 18.1670673076923  14.227728285078 18.2662259615385  14.3502227171492 18.3443509615385  C 14.4727171492205 18.4224759615385  14.619710467706 18.4615384615385  14.7912026726058 18.4615384615385  L 18.1904231625835 18.4615384615385  C 18.3619153674833 18.4615384615385  18.505846325167 18.4224759615385  18.6222160356347 18.3443509615385  Z M 17.6943207126949 0.324519230769231  C 18.0618040089087 0.540865384615384  18.3496659242762 0.835336538461536  18.5579064587973 1.20793269230769  L 32.6692650334076 26.5925480769231  C 33.097995545657 27.3497596153846  33.0857461024499 28.1069711538462  32.6325167037862 28.8641826923077  C 32.424276169265 29.2127403846154  32.1394766146993 29.4891826923077  31.7781180400891 29.6935096153846  C 31.4167594654788 29.8978365384615  31.0278396436526 30  30.6113585746102 30  L 2.38864142538976 30  C 1.97216035634744 30  1.58324053452116 29.8978365384615  1.22188195991091 29.6935096153846  C 0.860523385300668 29.4891826923077  0.575723830734967 29.2127403846154  0.367483296213808 28.8641826923077  C -0.0857461024498887 28.1069711538462  -0.0979955456570156 27.3497596153846  0.330734966592428 26.5925480769231  L 14.4420935412027 1.20793269230769  C 14.6503340757238 0.835336538461536  14.9381959910913 0.540865384615384  15.3056792873051 0.324519230769231  C 15.6731625835189 0.108173076923078  16.0712694877506 0  16.5 0  C 16.9287305122494 0  17.3268374164811 0.108173076923078  17.6943207126949 0.324519230769231  Z " fill-rule="nonzero" fill="#d9001b" stroke="none" transform="matrix(1 0 0 1 2735 2391 )" />
  </g>
</svg>