<?xml version="1.0" encoding="utf-8"?>
<svg version="1.1" xmlns:xlink="http://www.w3.org/1999/xlink" width="12px" height="12px" xmlns="http://www.w3.org/2000/svg">
  <g transform="matrix(1 0 0 1 -2045 -2594 )">
    <path d="M 2051 2594  C 2054.36 2594  2057 2596.64  2057 2600  C 2057 2603.36  2054.36 2606  2051 2606  C 2047.64 2606  2045 2603.36  2045 2600  C 2045 2596.64  2047.64 2594  2051 2594  Z " fill-rule="nonzero" fill="#333333" stroke="none" />
    <path d="M 2051 2594.5  C 2054.08 2594.5  2056.5 2596.92  2056.5 2600  C 2056.5 2603.08  2054.08 2605.5  2051 2605.5  C 2047.92 2605.5  2045.5 2603.08  2045.5 2600  C 2045.5 2596.92  2047.92 2594.5  2051 2594.5  Z " stroke-width="1" stroke="#797979" fill="none" />
  </g>
</svg>