<?xml version="1.0" encoding="utf-8"?>
<svg version="1.1" xmlns:xlink="http://www.w3.org/1999/xlink" width="16px" height="20px" xmlns="http://www.w3.org/2000/svg">
  <g transform="matrix(1 0 0 1 -113 -1775 )">
    <path d="M 15.7250859106529 9.53907815631263  C 15.9083619702176 9.67267869071476  16 9.82631930527722  16 10  C 16 10.1736806947228  15.9083619702176 10.3273213092852  15.7250859106529 10.4609218436874  L 2.91408934707904 19.7995991983968  C 2.73081328751432 19.9331997327989  2.52004581901489 20  2.28178694158076 20  C 2.04352806414662 20  1.83276059564719 19.9331997327989  1.64948453608247 19.7995991983968  L 0.274914089347079 18.7975951903808  C 0.0916380297823597 18.6639946559786  0 18.5103540414162  0 18.3366733466934  C 0 18.1629926519706  0.0916380297823597 18.0093520374081  0.274914089347079 17.875751503006  L 11.0790378006873 10  L 0.274914089347079 2.12424849699399  C 0.0916380297823597 1.99064796259185  0 1.83700734802939  0 1.66332665330661  C 0 1.48964595858383  0.0916380297823597 1.33600534402137  0.274914089347079 1.20240480961924  L 1.64948453608247 0.200400801603207  C 1.83276059564719 0.0668002672010681  2.04352806414662 0  2.28178694158076 0  C 2.52004581901489 0  2.73081328751432 0.0668002672010681  2.91408934707904 0.200400801603207  L 15.7250859106529 9.53907815631263  Z " fill-rule="nonzero" fill="#000000" stroke="none" transform="matrix(1 0 0 1 113 1775 )" />
  </g>
</svg>