<?xml version="1.0" encoding="utf-8"?>
<svg version="1.1" xmlns:xlink="http://www.w3.org/1999/xlink" width="22px" height="22px" viewBox="946 1209  22 22" xmlns="http://www.w3.org/2000/svg">
  <path d="M 957 1209  C 963.16 1209  968 1213.84  968 1220  C 968 1226.16  963.16 1231  957 1231  C 950.84 1231  946 1226.16  946 1220  C 946 1213.84  950.84 1209  957 1209  Z " fill-rule="nonzero" fill="#ffffff" stroke="none" />
  <path d="M 957 1209.5  C 962.88 1209.5  967.5 1214.12  967.5 1220  C 967.5 1225.88  962.88 1230.5  957 1230.5  C 951.12 1230.5  946.5 1225.88  946.5 1220  C 946.5 1214.12  951.12 1209.5  957 1209.5  Z " stroke-width="1" stroke="#797979" fill="none" />
  <path d="M 957 1225.5  C 953.92 1225.5  951.5 1223.08  951.5 1220  C 951.5 1216.92  953.92 1214.5  957 1214.5  C 960.08 1214.5  962.5 1216.92  962.5 1220  C 962.5 1223.08  960.08 1225.5  957 1225.5  " fill-rule="nonzero" fill="#797979" stroke="none" />
</svg>