<?xml version="1.0" encoding="utf-8"?>
<svg version="1.1" xmlns:xlink="http://www.w3.org/1999/xlink" width="22px" height="22px" viewBox="946 1264  22 22" xmlns="http://www.w3.org/2000/svg">
  <path d="M 957 1264  C 963.16 1264  968 1268.84  968 1275  C 968 1281.16  963.16 1286  957 1286  C 950.84 1286  946 1281.16  946 1275  C 946 1268.84  950.84 1264  957 1264  Z " fill-rule="nonzero" fill="#f0f0f0" stroke="none" />
  <path d="M 957 1264.5  C 962.88 1264.5  967.5 1269.12  967.5 1275  C 967.5 1280.88  962.88 1285.5  957 1285.5  C 951.12 1285.5  946.5 1280.88  946.5 1275  C 946.5 1269.12  951.12 1264.5  957 1264.5  Z " stroke-width="1" stroke="#797979" fill="none" />
  <path d="M 957 1280.5  C 953.92 1280.5  951.5 1278.08  951.5 1275  C 951.5 1271.92  953.92 1269.5  957 1269.5  C 960.08 1269.5  962.5 1271.92  962.5 1275  C 962.5 1278.08  960.08 1280.5  957 1280.5  " fill-rule="nonzero" fill="#797979" stroke="none" />
</svg>