<?xml version="1.0" encoding="utf-8"?>
<svg version="1.1" xmlns:xlink="http://www.w3.org/1999/xlink" width="22px" height="22px" viewBox="551 1262  22 22" xmlns="http://www.w3.org/2000/svg">
  <path d="M 562 1262  C 568.16 1262  573 1266.84  573 1273  C 573 1279.16  568.16 1284  562 1284  C 555.84 1284  551 1279.16  551 1273  C 551 1266.84  555.84 1262  562 1262  Z " fill-rule="nonzero" fill="#f0f0f0" stroke="none" />
  <path d="M 562 1262.5  C 567.88 1262.5  572.5 1267.12  572.5 1273  C 572.5 1278.88  567.88 1283.5  562 1283.5  C 556.12 1283.5  551.5 1278.88  551.5 1273  C 551.5 1267.12  556.12 1262.5  562 1262.5  Z " stroke-width="1" stroke="#797979" fill="none" />
  <path d="M 562 1278.5  C 558.92 1278.5  556.5 1276.08  556.5 1273  C 556.5 1269.92  558.92 1267.5  562 1267.5  C 565.08 1267.5  567.5 1269.92  567.5 1273  C 567.5 1276.08  565.08 1278.5  562 1278.5  " fill-rule="nonzero" fill="#797979" stroke="none" />
</svg>