<?xml version="1.0" encoding="utf-8"?>
<svg version="1.1" xmlns:xlink="http://www.w3.org/1999/xlink" width="12px" height="12px" viewBox="1723 726.5  12 12" xmlns="http://www.w3.org/2000/svg">
  <path d="M 1729 726.5  C 1732.36 726.5  1735 729.14  1735 732.5  C 1735 735.86  1732.36 738.5  1729 738.5  C 1725.64 738.5  1723 735.86  1723 732.5  C 1723 729.14  1725.64 726.5  1729 726.5  Z " fill-rule="nonzero" fill="#f0f0f0" stroke="none" />
  <path d="M 1729 727  C 1732.08 727  1734.5 729.42  1734.5 732.5  C 1734.5 735.58  1732.08 738  1729 738  C 1725.92 738  1723.5 735.58  1723.5 732.5  C 1723.5 729.42  1725.92 727  1729 727  Z " stroke-width="1" stroke="#797979" fill="none" />
  <path d="M 1729 735.5  C 1727.32 735.5  1726 734.18  1726 732.5  C 1726 730.82  1727.32 729.5  1729 729.5  C 1730.68 729.5  1732 730.82  1732 732.5  C 1732 734.18  1730.68 735.5  1729 735.5  " fill-rule="nonzero" fill="#797979" stroke="none" />
</svg>