<?xml version="1.0" encoding="utf-8"?>
<svg version="1.1" xmlns:xlink="http://www.w3.org/1999/xlink" width="22px" height="22px" viewBox="886 347  22 22" xmlns="http://www.w3.org/2000/svg">
  <path d="M 897 347  C 903.16 347  908 351.84  908 358  C 908 364.16  903.16 369  897 369  C 890.84 369  886 364.16  886 358  C 886 351.84  890.84 347  897 347  Z " fill-rule="nonzero" fill="#ffffff" stroke="none" />
  <path d="M 897 347.5  C 902.88 347.5  907.5 352.12  907.5 358  C 907.5 363.88  902.88 368.5  897 368.5  C 891.12 368.5  886.5 363.88  886.5 358  C 886.5 352.12  891.12 347.5  897 347.5  Z " stroke-width="1" stroke="#797979" fill="none" />
  <path d="M 897 363.5  C 893.92 363.5  891.5 361.08  891.5 358  C 891.5 354.92  893.92 352.5  897 352.5  C 900.08 352.5  902.5 354.92  902.5 358  C 902.5 361.08  900.08 363.5  897 363.5  " fill-rule="nonzero" fill="#797979" stroke="none" />
</svg>