<?xml version="1.0" encoding="utf-8"?>
<svg version="1.1" xmlns:xlink="http://www.w3.org/1999/xlink" width="22px" height="22px" viewBox="886 402  22 22" xmlns="http://www.w3.org/2000/svg">
  <path d="M 897 402  C 903.16 402  908 406.84  908 413  C 908 419.16  903.16 424  897 424  C 890.84 424  886 419.16  886 413  C 886 406.84  890.84 402  897 402  Z " fill-rule="nonzero" fill="#f0f0f0" stroke="none" />
  <path d="M 897 402.5  C 902.88 402.5  907.5 407.12  907.5 413  C 907.5 418.88  902.88 423.5  897 423.5  C 891.12 423.5  886.5 418.88  886.5 413  C 886.5 407.12  891.12 402.5  897 402.5  Z " stroke-width="1" stroke="#797979" fill="none" />
  <path d="M 897 418.5  C 893.92 418.5  891.5 416.08  891.5 413  C 891.5 409.92  893.92 407.5  897 407.5  C 900.08 407.5  902.5 409.92  902.5 413  C 902.5 416.08  900.08 418.5  897 418.5  " fill-rule="nonzero" fill="#797979" stroke="none" />
</svg>