<?xml version="1.0" encoding="utf-8"?>
<svg version="1.1" xmlns:xlink="http://www.w3.org/1999/xlink" width="22px" height="22px" viewBox="293 397  22 22" xmlns="http://www.w3.org/2000/svg">
  <path d="M 304 397  C 310.16 397  315 401.84  315 408  C 315 414.16  310.16 419  304 419  C 297.84 419  293 414.16  293 408  C 293 401.84  297.84 397  304 397  Z " fill-rule="nonzero" fill="#ffffff" stroke="none" />
  <path d="M 304 397.5  C 309.88 397.5  314.5 402.12  314.5 408  C 314.5 413.88  309.88 418.5  304 418.5  C 298.12 418.5  293.5 413.88  293.5 408  C 293.5 402.12  298.12 397.5  304 397.5  Z " stroke-width="1" stroke="#797979" fill="none" />
  <path d="M 304 413.5  C 300.92 413.5  298.5 411.08  298.5 408  C 298.5 404.92  300.92 402.5  304 402.5  C 307.08 402.5  309.5 404.92  309.5 408  C 309.5 411.08  307.08 413.5  304 413.5  " fill-rule="nonzero" fill="#797979" stroke="none" />
</svg>