<?xml version="1.0" encoding="utf-8"?>
<svg version="1.1" xmlns:xlink="http://www.w3.org/1999/xlink" width="22px" height="22px" viewBox="551 1209  22 22" xmlns="http://www.w3.org/2000/svg">
  <path d="M 562 1209  C 568.16 1209  573 1213.84  573 1220  C 573 1226.16  568.16 1231  562 1231  C 555.84 1231  551 1226.16  551 1220  C 551 1213.84  555.84 1209  562 1209  Z " fill-rule="nonzero" fill="#ffffff" stroke="none" />
  <path d="M 562 1209.5  C 567.88 1209.5  572.5 1214.12  572.5 1220  C 572.5 1225.88  567.88 1230.5  562 1230.5  C 556.12 1230.5  551.5 1225.88  551.5 1220  C 551.5 1214.12  556.12 1209.5  562 1209.5  Z " stroke-width="1" stroke="#797979" fill="none" />
  <path d="M 562 1225.5  C 558.92 1225.5  556.5 1223.08  556.5 1220  C 556.5 1216.92  558.92 1214.5  562 1214.5  C 565.08 1214.5  567.5 1216.92  567.5 1220  C 567.5 1223.08  565.08 1225.5  562 1225.5  " fill-rule="nonzero" fill="#797979" stroke="none" />
</svg>