<?xml version="1.0" encoding="utf-8"?>
<svg version="1.1" xmlns:xlink="http://www.w3.org/1999/xlink" width="22px" height="22px" viewBox="353 1259  22 22" xmlns="http://www.w3.org/2000/svg">
  <path d="M 364 1259  C 370.16 1259  375 1263.84  375 1270  C 375 1276.16  370.16 1281  364 1281  C 357.84 1281  353 1276.16  353 1270  C 353 1263.84  357.84 1259  364 1259  Z " fill-rule="nonzero" fill="#f0f0f0" stroke="none" />
  <path d="M 364 1259.5  C 369.88 1259.5  374.5 1264.12  374.5 1270  C 374.5 1275.88  369.88 1280.5  364 1280.5  C 358.12 1280.5  353.5 1275.88  353.5 1270  C 353.5 1264.12  358.12 1259.5  364 1259.5  Z " stroke-width="1" stroke="#797979" fill="none" />
  <path d="M 364 1275.5  C 360.92 1275.5  358.5 1273.08  358.5 1270  C 358.5 1266.92  360.92 1264.5  364 1264.5  C 367.08 1264.5  369.5 1266.92  369.5 1270  C 369.5 1273.08  367.08 1275.5  364 1275.5  " fill-rule="nonzero" fill="#797979" stroke="none" />
</svg>