<?xml version="1.0" encoding="utf-8"?>
<svg version="1.1" xmlns:xlink="http://www.w3.org/1999/xlink" width="10px" height="10px" xmlns="http://www.w3.org/2000/svg">
  <g transform="matrix(1 0 0 1 -429 -207 )">
    <path d="M 7.68531468531469 5  L 9.54545454545455 6.00260416666667  C 9.75990675990676 6.11545138888889  9.8986013986014 6.28363715277778  9.96153846153846 6.50716145833333  C 10.0244755244755 6.73068576388889  9.995337995338 6.94227430555556  9.87412587412587 7.14192708333333  L 9.42657342657343 7.85807291666667  C 9.30536130536131 8.05772569444444  9.12470862470863 8.18684895833333  8.88461538461538 8.24544270833333  C 8.64452214452215 8.30403645833333  8.41724941724942 8.27690972222222  8.2027972027972 8.1640625  L 6.34265734265734 7.16796875  L 6.34265734265734 9.16666666666667  C 6.34265734265734 9.39236111111111  6.25407925407925 9.58767361111111  6.07692307692308 9.75260416666667  C 5.8997668997669 9.91753472222222  5.68997668997669 10  5.44755244755245 10  L 4.55244755244755 10  C 4.31002331002331 10  4.1002331002331 9.91753472222222  3.92307692307692 9.75260416666667  C 3.74592074592075 9.58767361111111  3.65734265734266 9.39236111111111  3.65734265734266 9.16666666666667  L 3.65734265734266 7.16796875  L 1.7972027972028 8.1640625  C 1.58275058275058 8.27690972222222  1.35547785547786 8.30403645833333  1.11538461538462 8.24544270833333  C 0.875291375291375 8.18684895833333  0.694638694638695 8.05772569444444  0.573426573426573 7.85807291666667  L 0.125874125874126 7.14192708333333  C 0.0046620046620047 6.94227430555556  -0.0244755244755245 6.73068576388889  0.0384615384615385 6.50716145833333  C 0.101398601398601 6.28363715277778  0.24009324009324 6.11545138888889  0.454545454545455 6.00260416666667  L 2.31468531468531 5  L 0.454545454545455 3.99739583333333  C 0.24009324009324 3.88454861111111  0.101398601398601 3.71636284722222  0.0384615384615385 3.49283854166667  C -0.0244755244755245 3.26931423611111  0.0046620046620047 3.05772569444444  0.125874125874126 2.85807291666667  L 0.573426573426573 2.14192708333333  C 0.694638694638695 1.94227430555555  0.875291375291375 1.81315104166667  1.11538461538462 1.75455729166667  C 1.35547785547786 1.69596354166667  1.58275058275058 1.72309027777778  1.7972027972028 1.8359375  L 3.65734265734266 2.83203125  L 3.65734265734266 0.833333333333334  C 3.65734265734266 0.607638888888888  3.74592074592075 0.412326388888888  3.92307692307692 0.247395833333334  C 4.1002331002331 0.0824652777777768  4.31002331002331 0  4.55244755244755 0  L 5.44755244755245 0  C 5.68997668997669 0  5.8997668997669 0.0824652777777768  6.07692307692308 0.247395833333334  C 6.25407925407925 0.412326388888888  6.34265734265734 0.607638888888888  6.34265734265734 0.833333333333334  L 6.34265734265734 2.83203125  L 8.2027972027972 1.8359375  C 8.41724941724942 1.72309027777778  8.64452214452215 1.69596354166667  8.88461538461538 1.75455729166667  C 9.12470862470863 1.81315104166667  9.30536130536131 1.94227430555555  9.42657342657343 2.14192708333333  L 9.87412587412587 2.85807291666667  C 9.995337995338 3.05772569444444  10.0244755244755 3.26931423611111  9.96153846153846 3.49283854166667  C 9.8986013986014 3.71636284722222  9.75990675990676 3.88454861111111  9.54545454545455 3.99739583333333  L 7.68531468531469 5  Z " fill-rule="nonzero" fill="#d9001b" stroke="none" transform="matrix(1 0 0 1 429 207 )" />
  </g>
</svg>