<?xml version="1.0" encoding="utf-8"?>
<svg version="1.1" xmlns:xlink="http://www.w3.org/1999/xlink" width="101px" height="20px" xmlns="http://www.w3.org/2000/svg">
  <defs>
    <mask fill="white" id="clip386">
      <path d="M 0 15  L 0 5  C 0 2.19999999999999  2.19999999999999 0  5 0  L 96 0  C 98.8 0  101 2.19999999999999  101 5  L 101 15  C 101 17.8  98.8 20  96 20  L 58 20  L 5 20  C 2.19999999999999 20  0 17.8  0 15  Z " fill-rule="evenodd" />
    </mask>
  </defs>
  <g transform="matrix(1 0 0 1 -349 -539 )">
    <path d="M 0 15  L 0 5  C 0 2.19999999999999  2.19999999999999 0  5 0  L 96 0  C 98.8 0  101 2.19999999999999  101 5  L 101 15  C 101 17.8  98.8 20  96 20  L 58 20  L 5 20  C 2.19999999999999 20  0 17.8  0 15  Z " fill-rule="nonzero" fill="#0000ff" stroke="none" transform="matrix(1 0 0 1 349 539 )" />
    <path d="M 0 15  L 0 5  C 0 2.19999999999999  2.19999999999999 0  5 0  L 96 0  C 98.8 0  101 2.19999999999999  101 5  L 101 15  C 101 17.8  98.8 20  96 20  L 58 20  L 5 20  C 2.19999999999999 20  0 17.8  0 15  Z " stroke-width="2" stroke="#797979" fill="none" transform="matrix(1 0 0 1 349 539 )" mask="url(#clip386)" />
  </g>
</svg>