<?xml version="1.0" encoding="utf-8"?>
<svg version="1.1" xmlns:xlink="http://www.w3.org/1999/xlink" width="20px" height="20px" xmlns="http://www.w3.org/2000/svg">
  <defs>
    <mask fill="white" id="clip463">
      <path d="M 0 10  C 0 7.94996170777716  0.589658507594145 6.06073937217088  1.61198558513263 4.48932293083096  C 3.38230470153822 1.7681697626725  6.45003829222288 0  10 0  C 12.8 0  15.3 1.10000000000001  17.1 2.90000000000002  C 17.9066608952334 3.70666089523351  18.5727380682666 4.65390551266738  19.0622304425262 5.70573277572853  C 19.6650234955109 7.00106992488129  20 8.45485634819214  20 10  C 20 15.6  15.6 20  10 20  C 4.40000000000004 20  0 15.6  0 10  Z " fill-rule="evenodd" />
    </mask>
  </defs>
  <g transform="matrix(1 0 0 1 -411 -229 )">
    <path d="M 0 10  C 0 7.94996170777716  0.589658507594145 6.06073937217088  1.61198558513263 4.48932293083096  C 3.38230470153822 1.7681697626725  6.45003829222288 0  10 0  C 12.8 0  15.3 1.10000000000001  17.1 2.90000000000002  C 17.9066608952334 3.70666089523351  18.5727380682666 4.65390551266738  19.0622304425262 5.70573277572853  C 19.6650234955109 7.00106992488129  20 8.45485634819214  20 10  C 20 15.6  15.6 20  10 20  C 4.40000000000004 20  0 15.6  0 10  Z " fill-rule="nonzero" fill="#d9001b" stroke="none" transform="matrix(1 0 0 1 411 229 )" />
    <path d="M 0 10  C 0 7.94996170777716  0.589658507594145 6.06073937217088  1.61198558513263 4.48932293083096  C 3.38230470153822 1.7681697626725  6.45003829222288 0  10 0  C 12.8 0  15.3 1.10000000000001  17.1 2.90000000000002  C 17.9066608952334 3.70666089523351  18.5727380682666 4.65390551266738  19.0622304425262 5.70573277572853  C 19.6650234955109 7.00106992488129  20 8.45485634819214  20 10  C 20 15.6  15.6 20  10 20  C 4.40000000000004 20  0 15.6  0 10  Z " stroke-width="2" stroke="#797979" fill="none" transform="matrix(1 0 0 1 411 229 )" mask="url(#clip463)" />
  </g>
</svg>