<?xml version="1.0" encoding="utf-8"?>
<svg version="1.1" xmlns:xlink="http://www.w3.org/1999/xlink" width="22px" height="22px" xmlns="http://www.w3.org/2000/svg">
  <g transform="matrix(1 0 0 1 -545 -362 )">
    <path d="M 556 362  C 562.16 362  567 366.84  567 373  C 567 379.16  562.16 384  556 384  C 549.84 384  545 379.16  545 373  C 545 366.84  549.84 362  556 362  Z " fill-rule="nonzero" fill="#ffffff" stroke="none" />
    <path d="M 556 362.5  C 561.88 362.5  566.5 367.12  566.5 373  C 566.5 378.88  561.88 383.5  556 383.5  C 550.12 383.5  545.5 378.88  545.5 373  C 545.5 367.12  550.12 362.5  556 362.5  Z " stroke-width="1" stroke="#797979" fill="none" />
  </g>
</svg>