<?xml version="1.0" encoding="utf-8"?>
<svg version="1.1" xmlns:xlink="http://www.w3.org/1999/xlink" width="12px" height="12px" viewBox="728 499  12 12" xmlns="http://www.w3.org/2000/svg">
  <path d="M 734 499  C 737.36 499  740 501.64  740 505  C 740 508.36  737.36 511  734 511  C 730.64 511  728 508.36  728 505  C 728 501.64  730.64 499  734 499  Z " fill-rule="nonzero" fill="#ffffff" stroke="none" />
  <path d="M 734 499.5  C 737.08 499.5  739.5 501.92  739.5 505  C 739.5 508.08  737.08 510.5  734 510.5  C 730.92 510.5  728.5 508.08  728.5 505  C 728.5 501.92  730.92 499.5  734 499.5  Z " stroke-width="1" stroke="#797979" fill="none" />
  <path d="M 734 508  C 732.32 508  731 506.68  731 505  C 731 503.32  732.32 502  734 502  C 735.68 502  737 503.32  737 505  C 737 506.68  735.68 508  734 508  " fill-rule="nonzero" fill="#797979" stroke="none" />
</svg>