<?xml version="1.0" encoding="utf-8"?>
<svg version="1.1" xmlns:xlink="http://www.w3.org/1999/xlink" width="214px" height="20px" xmlns="http://www.w3.org/2000/svg">
  <defs>
    <mask fill="white" id="clip257">
      <path d="M 0 20  L 0 0  L 82 0  L 124 0  L 133.142045454545 0  L 214 0  L 214 20  L 0 20  Z " fill-rule="evenodd" />
    </mask>
  </defs>
  <g transform="matrix(1 0 0 1 -520 -509 )">
    <path d="M 0 20  L 0 0  L 82 0  L 124 0  L 133.142045454545 0  L 214 0  L 214 20  L 0 20  Z " fill-rule="nonzero" fill="#ffffff" stroke="none" transform="matrix(1 0 0 1 520 509 )" />
    <path d="M 0 20  L 0 0  L 82 0  L 124 0  L 133.142045454545 0  L 214 0  L 214 20  L 0 20  Z " stroke-width="2" stroke="#d7d7d7" fill="none" transform="matrix(1 0 0 1 520 509 )" mask="url(#clip257)" />
  </g>
</svg>