<?xml version="1.0" encoding="utf-8"?>
<svg version="1.1" xmlns:xlink="http://www.w3.org/1999/xlink" width="18px" height="26px" xmlns="http://www.w3.org/2000/svg">
  <defs>
    <mask fill="white" id="clip288">
      <path d="M 17.5725288831836 12.1521739130435  C 17.8575096277279 12.6114130434783  18 13.1471920289855  18 13.7595108695652  C 18 14.3600543478261  17.8575096277279 14.8899456521739  17.5725288831836 15.3491847826087  L 16.7060333761232 16.6739130434783  C 16.413350449294 17.1213768115942  16.0629011553273 17.3451086956522  15.6546854942234 17.3451086956522  C 15.2387676508344 17.3451086956522  14.8921694480103 17.1213768115942  14.614890885751 16.6739130434783  L 11 11.4986413043478  L 11 23.9334239130435  C 11.2182284980745 24.5457427536232  11.0738125802311 25.0432518115942  10.7849807445443 25.4259510869565  C 10.4961489088575 25.8086503623188  10.1476251604621 26  9.73940949935815 26  L 8.26059050064185 26  C 7.85237483953787 26  7.50385109114249 25.8086503623188  7.21501925545571 25.4259510869565  C 6.92618741976893 25.0432518115942  6.78177150192555 24.5457427536232  7 23.9334239130435  L 7 11.4986413043478  L 3.38510911424904 16.6739130434783  C 3.10783055198973 17.1213768115942  2.7612323491656 17.3451086956522  2.34531450577664 17.3451086956522  C 1.92939666238768 17.3451086956522  1.58279845956354 17.1213768115942  1.30551989730424 16.6739130434783  L 0.439024390243902 15.3491847826087  C 0.146341463414634 14.9017210144928  0 14.3718297101449  0 13.7595108695652  C 0 13.1354166666667  0.146341463414634 12.5996376811594  0.439024390243902 12.1521739130435  L 7.9602053915276 0.653532608695653  C 8.22978177150193 0.21784420289855  8.57637997432606 0  9 0  C 9.41591784338896 0  9.76636713735559 0.21784420289855  10.0513478818999 0.653532608695653  L 17.5725288831836 12.1521739130435  Z " fill-rule="evenodd" />
    </mask>
  </defs>
  <g transform="matrix(1 0 0 1 -547 -373 )">
    <path d="M 17.5725288831836 12.1521739130435  C 17.8575096277279 12.6114130434783  18 13.1471920289855  18 13.7595108695652  C 18 14.3600543478261  17.8575096277279 14.8899456521739  17.5725288831836 15.3491847826087  L 16.7060333761232 16.6739130434783  C 16.413350449294 17.1213768115942  16.0629011553273 17.3451086956522  15.6546854942234 17.3451086956522  C 15.2387676508344 17.3451086956522  14.8921694480103 17.1213768115942  14.614890885751 16.6739130434783  L 11 11.4986413043478  L 11 23.9334239130435  C 11.2182284980745 24.5457427536232  11.0738125802311 25.0432518115942  10.7849807445443 25.4259510869565  C 10.4961489088575 25.8086503623188  10.1476251604621 26  9.73940949935815 26  L 8.26059050064185 26  C 7.85237483953787 26  7.50385109114249 25.8086503623188  7.21501925545571 25.4259510869565  C 6.92618741976893 25.0432518115942  6.78177150192555 24.5457427536232  7 23.9334239130435  L 7 11.4986413043478  L 3.38510911424904 16.6739130434783  C 3.10783055198973 17.1213768115942  2.7612323491656 17.3451086956522  2.34531450577664 17.3451086956522  C 1.92939666238768 17.3451086956522  1.58279845956354 17.1213768115942  1.30551989730424 16.6739130434783  L 0.439024390243902 15.3491847826087  C 0.146341463414634 14.9017210144928  0 14.3718297101449  0 13.7595108695652  C 0 13.1354166666667  0.146341463414634 12.5996376811594  0.439024390243902 12.1521739130435  L 7.9602053915276 0.653532608695653  C 8.22978177150193 0.21784420289855  8.57637997432606 0  9 0  C 9.41591784338896 0  9.76636713735559 0.21784420289855  10.0513478818999 0.653532608695653  L 17.5725288831836 12.1521739130435  Z " fill-rule="nonzero" fill="#95f204" stroke="none" transform="matrix(1 0 0 1 547 373 )" />
    <path d="M 17.5725288831836 12.1521739130435  C 17.8575096277279 12.6114130434783  18 13.1471920289855  18 13.7595108695652  C 18 14.3600543478261  17.8575096277279 14.8899456521739  17.5725288831836 15.3491847826087  L 16.7060333761232 16.6739130434783  C 16.413350449294 17.1213768115942  16.0629011553273 17.3451086956522  15.6546854942234 17.3451086956522  C 15.2387676508344 17.3451086956522  14.8921694480103 17.1213768115942  14.614890885751 16.6739130434783  L 11 11.4986413043478  L 11 23.9334239130435  C 11.2182284980745 24.5457427536232  11.0738125802311 25.0432518115942  10.7849807445443 25.4259510869565  C 10.4961489088575 25.8086503623188  10.1476251604621 26  9.73940949935815 26  L 8.26059050064185 26  C 7.85237483953787 26  7.50385109114249 25.8086503623188  7.21501925545571 25.4259510869565  C 6.92618741976893 25.0432518115942  6.78177150192555 24.5457427536232  7 23.9334239130435  L 7 11.4986413043478  L 3.38510911424904 16.6739130434783  C 3.10783055198973 17.1213768115942  2.7612323491656 17.3451086956522  2.34531450577664 17.3451086956522  C 1.92939666238768 17.3451086956522  1.58279845956354 17.1213768115942  1.30551989730424 16.6739130434783  L 0.439024390243902 15.3491847826087  C 0.146341463414634 14.9017210144928  0 14.3718297101449  0 13.7595108695652  C 0 13.1354166666667  0.146341463414634 12.5996376811594  0.439024390243902 12.1521739130435  L 7.9602053915276 0.653532608695653  C 8.22978177150193 0.21784420289855  8.57637997432606 0  9 0  C 9.41591784338896 0  9.76636713735559 0.21784420289855  10.0513478818999 0.653532608695653  L 17.5725288831836 12.1521739130435  Z " stroke-width="2" stroke="#555555" fill="none" transform="matrix(1 0 0 1 547 373 )" mask="url(#clip288)" />
  </g>
</svg>