<?xml version="1.0" encoding="utf-8"?>
<svg version="1.1" xmlns:xlink="http://www.w3.org/1999/xlink" width="12px" height="12px" viewBox="560 677.5  12 12" xmlns="http://www.w3.org/2000/svg">
  <path d="M 566 677.5  C 569.36 677.5  572 680.14  572 683.5  C 572 686.86  569.36 689.5  566 689.5  C 562.64 689.5  560 686.86  560 683.5  C 560 680.14  562.64 677.5  566 677.5  Z " fill-rule="nonzero" fill="#ffffff" stroke="none" />
  <path d="M 566 678  C 569.08 678  571.5 680.42  571.5 683.5  C 571.5 686.58  569.08 689  566 689  C 562.92 689  560.5 686.58  560.5 683.5  C 560.5 680.42  562.92 678  566 678  Z " stroke-width="1" stroke="#797979" fill="none" />
  <path d="M 566 686.5  C 564.32 686.5  563 685.18  563 683.5  C 563 681.82  564.32 680.5  566 680.5  C 567.68 680.5  569 681.82  569 683.5  C 569 685.18  567.68 686.5  566 686.5  " fill-rule="nonzero" fill="#797979" stroke="none" />
</svg>