<?xml version="1.0" encoding="utf-8"?>
<svg version="1.1" xmlns:xlink="http://www.w3.org/1999/xlink" width="12px" height="12px" viewBox="407 677.5  12 12" xmlns="http://www.w3.org/2000/svg">
  <path d="M 413 677.5  C 416.36 677.5  419 680.14  419 683.5  C 419 686.86  416.36 689.5  413 689.5  C 409.64 689.5  407 686.86  407 683.5  C 407 680.14  409.64 677.5  413 677.5  Z " fill-rule="nonzero" fill="#f0f0f0" stroke="none" />
  <path d="M 413 678  C 416.08 678  418.5 680.42  418.5 683.5  C 418.5 686.58  416.08 689  413 689  C 409.92 689  407.5 686.58  407.5 683.5  C 407.5 680.42  409.92 678  413 678  Z " stroke-width="1" stroke="#797979" fill="none" />
  <path d="M 413 686.5  C 411.32 686.5  410 685.18  410 683.5  C 410 681.82  411.32 680.5  413 680.5  C 414.68 680.5  416 681.82  416 683.5  C 416 685.18  414.68 686.5  413 686.5  " fill-rule="nonzero" fill="#797979" stroke="none" />
</svg>